<svg xmlns="http://www.w3.org/2000/svg" class="svg-icon" style="width: 24px; height: 24px;vertical-align: middle;fill: currentColor;overflow: hidden;" viewBox="0 0 1024 1024" version="1.1"><path d="M426.666667 469.333333 42.666667 469.333333c-25.6 0-42.666667-17.066667-42.666667-42.666667L0 42.666667c0-25.6 17.066667-42.666667 42.666667-42.666667l384 0c25.6 0 42.666667 17.066667 42.666667 42.666667l0 384C469.333333 452.266667 452.266667 469.333333 426.666667 469.333333zM85.333333 384l298.666667 0L384 85.333333 85.333333 85.333333 85.333333 384z"/><path d="M981.333333 469.333333l-384 0c-25.6 0-42.666667-17.066667-42.666667-42.666667L554.666667 42.666667c0-25.6 17.066667-42.666667 42.666667-42.666667l384 0c25.6 0 42.666667 17.066667 42.666667 42.666667l0 384C1024 452.266667 1006.933333 469.333333 981.333333 469.333333zM640 384l298.666667 0L938.666667 85.333333l-298.666667 0L640 384z"/><path d="M426.666667 1024 42.666667 1024c-25.6 0-42.666667-17.066667-42.666667-42.666667l0-384c0-25.6 17.066667-42.666667 42.666667-42.666667l384 0c25.6 0 42.666667 17.066667 42.666667 42.666667l0 384C469.333333 1006.933333 452.266667 1024 426.666667 1024zM85.333333 938.666667l298.666667 0 0-298.666667L85.333333 640 85.333333 938.666667z"/><path d="M981.333333 1024l-384 0c-25.6 0-42.666667-17.066667-42.666667-42.666667l0-384c0-25.6 17.066667-42.666667 42.666667-42.666667l384 0c25.6 0 42.666667 17.066667 42.666667 42.666667l0 384C1024 1006.933333 1006.933333 1024 981.333333 1024zM640 938.666667l298.666667 0 0-298.666667-298.666667 0L640 938.666667z"/></svg>